Coordinates
version=1
nRows=4
nColumns=107
inDegrees=yes

Units are S.I. units (second, meters, Newtons, ...)
If the header above contains a line with 'inDegrees', this indicates whether rotational values are in degrees (yes) or radians (no).

endheader
time	sternoclavicular_r2	sternoclavicular_r3	unrotscap_r3	unrotscap_r2	acromioclavicular_r2	acromioclavicular_r3	acromioclavicular_r1	unrothum_r1	unrothum_r3	unrothum_r2	elv_angle	shoulder_elv	shoulder1_r2	shoulder_rot	elbow_flexion	pro_sup	deviation	flexion	proximal_distal_r1	proximal_distal_r3	cmc_flexion	cmc_abduction	mp_flexion	ip_flexion	mcp2_flexion	mcp2_abduction	pm2_flexion	md2_flexion	mcp3_flexion	mcp3_abduction	pm3_flexion	md3_flexion	mcp4_flexion	mcp4_abduction	pm4_flexion	md4_flexion	mcp5_flexion	mcp5_abduction	pm5_flexion	md5_flexion	bicpt_tx	bicpt_ty	bicpt_tz	bicpt2_tx	bicpt2_ty	bicpt2_tz	ptpt_tx	ptpt_ty	ptpt_tz	FCUpt_tx	FCUpt_ty	FCUpt_tz	EDCpt_tx	EDCpt_ty	EDCpt_tz	APLpt_tx	APLpt_ty	APLpt_tz	FPLpt_tx	FPLpt_ty	FPLpt_tz	FPLpt2_tx	FPLpt2_ty	FPLpt2_tz	PEC1pt2_tx	PEC1pt2_ty	PEC1pt2_tz	PEC1pt3_tx	PEC1pt3_ty	PEC1pt3_tz	PEC2pt2_tx	PEC2pt2_ty	PEC2pt2_tz	PEC2pt3_tx	PEC2pt3_ty	PEC2pt3_tz	PEC3pt2_tx	PEC3pt2_ty	PEC3pt2_tz	PEC3pt3_tx	PEC3pt3_ty	PEC3pt3_tz	DELT2pt2a_tx	DELT2pt2a_ty	DELT2pt2a_tz	DELT2pt2_tx	DELT2pt2_ty	DELT2pt2_tz	LAT1pt2_tx	LAT1pt2_ty	LAT1pt2_tz	LAT1pt3_tx	LAT1pt3_ty	LAT1pt3_tz	LAT2pt2_tx	LAT2pt2_ty	LAT2pt2_tz	LAT2pt3_tx	LAT2pt3_ty	LAT2pt3_tz	LAT3pt2_tx	LAT3pt2_ty	LAT3pt2_tz	LAT3pt3_tx	LAT3pt3_ty	LAT3pt3_tz
      1.10000000	     -0.32279109	      0.13671907	     -0.13671907	      0.32279109	     -0.06535863	      0.52820546	      0.23742472	     -0.23742472	     -0.52820546	      0.06535863	     98.47130935	     76.42366004	     -1.71864857	    -23.65294937	     31.50762046	     67.45275327	      0.23820208	     -0.41381999	      0.27683180	     -0.20691000	     31.29626727	     -9.64473146	    -17.99940201	     -0.95282806	     61.34729384	     13.59346007	     59.49367965	     57.79086925	     64.27706575	      7.08548758	     69.61606577	     47.00417534	     58.71337323	     -9.97109348	     74.27908681	     42.74268005	     47.73708360	    -14.04648473	     82.90189210	      5.56268442	      0.00094217	     -0.03121125	     -0.00488168	      0.01576362	     -0.01875920	     -0.00401106	      0.00256600	     -0.06812274	     -0.00548368	      0.01066045	     -0.18281698	     -0.00029752	     -0.00809431	      0.00261329	     -0.00025489	      0.00027999	      0.00011200	      0.00055998	      0.00035839	      0.00107516	      0.00060478	     -0.00001015	     -0.00023828	     -0.00028593	      0.00250500	      0.00878873	      0.00611390	     -0.00819432	      0.01978525	     -0.01876627	      0.00250500	      0.00878873	      0.00611390	      0.00055195	      0.01834169	     -0.00963788	      0.00395764	      0.00488730	      0.01599132	      0.00000000	      0.00781134	      0.00000000	     -0.00717534	     -0.03315940	     -0.00644099	      0.01579497	     -0.00054669	     -0.00466870	     -0.00089161	      0.01494508	     -0.00611390	      0.00246254	      0.02156847	     -0.01783220	     -0.00598653	      0.01294958	     -0.00547703	     -0.01248254	      0.02734271	     -0.03061195	     -0.02343661	      0.01447805	     -0.00734517	     -0.01553949	      0.03158847	     -0.03825432
      1.13333333	     -0.32131399	      0.13609344	     -0.13609344	      0.32131399	     -0.06505955	      0.52578837	      0.23633825	     -0.23633825	     -0.52578837	      0.06505955	     98.50256528	     76.07394271	     -1.71919409	    -24.70979824	     32.38913868	     69.27350789	      0.25050342	     -0.23369186	      0.28860555	     -0.11684593	     28.34427376	     -9.75393622	    -17.89652868	      2.54691003	     50.23638686	     13.51505591	     55.29055040	     52.44794041	     54.39401278	      7.85589478	     65.95625001	     45.34019935	     47.38593178	     -8.06531786	     70.40641719	     43.06979303	     35.41418379	    -14.00260886	     78.50465872	      5.61272136	      0.00097133	     -0.03131229	     -0.00489795	      0.01564887	     -0.01899867	     -0.00374428	      0.00243147	     -0.06820973	     -0.00563035	      0.01085970	     -0.18276444	     -0.00027155	     -0.00831280	      0.00270330	     -0.00029595	      0.00019337	      0.00007735	      0.00038673	      0.00024751	      0.00074253	      0.00041767	     -0.00000606	     -0.00026228	     -0.00031473	      0.00249354	      0.00874851	      0.00608592	     -0.00815682	      0.01969472	     -0.01868040	      0.00249354	      0.00874851	      0.00608592	      0.00054942	      0.01825776	     -0.00959378	      0.00394442	      0.00486494	      0.01595902	      0.00000000	      0.00773951	      0.00000000	     -0.00714250	     -0.03300767	     -0.00638136	      0.01634578	     -0.00058081	     -0.00510195	     -0.00088753	      0.01487669	     -0.00608592	      0.00245127	      0.02146978	     -0.01775060	     -0.00595913	      0.01289032	     -0.00545197	     -0.01242542	      0.02721759	     -0.03047187	     -0.02332936	      0.01441180	     -0.00731156	     -0.01546838	      0.03144392	     -0.03807927
      1.16666667	     -0.32377060	      0.13713395	     -0.13713395	      0.32377060	     -0.06555696	      0.52980830	      0.23814518	     -0.23814518	     -0.52980830	      0.06555696	     98.08513414	     76.65556805	     -1.71190854	    -22.23376668	     32.23979041	     67.70535914	      0.27588052	     -0.10580432	      0.31211264	     -0.05290216	     26.79993964	     -9.86541127	    -18.23637085	      1.97050424	     40.65680341	     13.35265157	     50.00033592	     48.12110149	     46.32106618	      8.01645471	     60.18671198	     43.61695679	     38.14316662	     -6.66986245	     65.02801149	     42.13903377	     26.55663864	    -13.98074004	     72.42367696	      5.65271189	      0.00096639	     -0.03129517	     -0.00489520	      0.01574817	     -0.01895810	     -0.00397434	      0.00254734	     -0.06813480	     -0.00550403	      0.01068803	     -0.18280975	     -0.00029407	     -0.00812462	      0.00262572	     -0.00026047	      0.00009888	      0.00003955	      0.00019776	      0.00012656	      0.00037969	      0.00021358	     -0.00000334	     -0.00027098	     -0.00032517	      0.00251260	      0.00881540	      0.00613245	     -0.00821919	      0.01984529	     -0.01882322	      0.00251260	      0.00881540	      0.00613245	      0.00055362	      0.01839735	     -0.00966713	      0.00396639	      0.00490213	      0.01601257	      0.00000000	      0.00785916	      0.00000000	     -0.00719711	     -0.03326003	     -0.00648068	      0.01503197	     -0.00050151	     -0.00411226	     -0.00089432	      0.01499043	     -0.00613245	      0.00247001	      0.02163392	     -0.01788631	     -0.00600469	      0.01298887	     -0.00549365	     -0.01252042	      0.02742568	     -0.03070484	     -0.02350773	      0.01452198	     -0.00736746	     -0.01558665	      0.03168433	     -0.03837040
      1.20000000	     -0.32115372	      0.13602556	     -0.13602556	      0.32115372	     -0.06502710	      0.52552612	      0.23622037	     -0.23622037	     -0.52552612	      0.06502710	     98.66551821	     76.03599862	     -1.72203815	    -25.02081008	     32.39187557	     70.24823531	      0.25987537	     -0.03436956	      0.29740943	     -0.01718478	     24.99101397	     -9.32019394	    -18.23266781	      3.25655061	     31.70390367	     13.10222305	     43.81132758	     43.21814523	     37.59155653	      8.19576209	     54.10469531	     40.81383950	     28.34070922	     -5.09696289	     59.31263231	     40.09286428	     17.22663272	    -13.95169229	     67.21496442	      5.60613886	      0.00097142	     -0.03131260	     -0.00489800	      0.01558433	     -0.01899941	     -0.00359956	      0.00235945	     -0.06825630	     -0.00570887	      0.01096679	     -0.18273593	     -0.00025663	     -0.00842977	      0.00275190	     -0.00031867	      0.00003418	      0.00001367	      0.00006836	      0.00004375	      0.00013124	      0.00007382	      0.00000026	     -0.00027780	     -0.00033336	      0.00249229	      0.00874415	      0.00608289	     -0.00815276	      0.01968489	     -0.01867108	      0.00249229	      0.00874415	      0.00608289	      0.00054915	      0.01824866	     -0.00958899	      0.00394298	      0.00486251	      0.01595550	      0.00000000	      0.00773174	      0.00000000	     -0.00713894	     -0.03299120	     -0.00637491	      0.01650498	     -0.00059092	     -0.00523252	     -0.00088709	      0.01486927	     -0.00608289	      0.00245005	      0.02145907	     -0.01774175	     -0.00595616	      0.01288389	     -0.00544925	     -0.01241922	      0.02720401	     -0.03045667	     -0.02331773	      0.01440461	     -0.00730791	     -0.01546067	      0.03142824	     -0.03806027
